<svg width="310" height="406" xmlns="http://www.w3.org/2000/svg">
    <style>
        .title {
        font-family: '上图东观体';
        font-size: 24px;
        fill: #1e90ff;
        text-anchor: middle;
        }
        .author {
        font-family: '仓耳玉楷';
        font-size: 17px;
        fill: #4169e1;
        text-anchor: middle;
        }
        .slogan {
        font-family: '又又意宋';
        font-size: 22px;
        fill: #1e90ff;
        text-anchor: middle;
        }
    </style>

    <rect width="100%" height="100%" fill="#f0f8ff"/>

    <text x="155" y="40" class="title">
        <tspan x="155" dy="0">阴影</tspan>
        <tspan x="155" dy="28">西方艺术中对投影的描绘</tspan>
    </text>

    <line x1="20" y1="90" x2="290" y2="90" stroke="#1e90ff" stroke-width="2"/> <!-- Adjusted y1 and y2 to 90 -->

    <text x="155" y="120" class="author"> <!-- Adjusted y to 120 -->
        <tspan x="155" dy="0">(英)E.H. 贡布里希(E.H. Gombrich)著</tspan>
        <tspan x="155" dy="24">王立秋译</tspan>
    </text>

    <g transform="translate(55, 200)"> <!-- Adjusted y-translation to 200 -->
        <path d="M0,0 Q50,100 100,0 T200,0" stroke="#4169e1" stroke-width="2" fill="none"/>
        <circle cx="50" cy="50" r="20" fill="none" stroke="#1e90ff" stroke-width="2"/>
        <circle cx="150" cy="50" r="20" fill="none" stroke="#1e90ff" stroke-width="2"/>
        <line x1="30" y1="50" x2="70" y2="50" stroke="#4169e1" stroke-width="2"/>
        <line x1="130" y1="50" x2="170" y2="50" stroke="#4169e1" stroke-width="2"/>
        <line x1="100" y1="20" x2="100" y2="80" stroke="#4169e1" stroke-width="2"/>
        <path d="M100,100 Q150,50 200,100" stroke="#1e90ff" stroke-width="2" fill="none"/>
        <circle cx="150" cy="75" r="10" fill="#4169e1"/>
        <line x1="100" y1="100" x2="200" y2="100" stroke="#4169e1" stroke-width="2"/>
        <line x1="150" y1="75" x2="150" y2="125" stroke="#4169e1" stroke-width="2"/>
    </g>

    <text x="155" y="360" class="slogan"> <!-- Adjusted y to 360 -->
        <tspan x="155" dy="0">光影之间，</tspan>
        <tspan x="155" dy="28">艺术之眼的舞步</tspan>
    </text>
</svg>